<svg width="21" height="20" viewBox="0 0 21 20" fill="none" xmlns="http://www.w3.org/2000/svg">
<path d="M19.5938 6.75781C20.5586 6.90625 20.9297 8.09375 20.2246 8.79883L16.3281 12.6211L17.2559 18.002C17.4043 18.9668 16.3652 19.709 15.5117 19.2637L10.6875 16.7031L5.82617 19.2637C4.97266 19.709 3.93359 18.9668 4.08203 18.002L5.00977 12.6211L1.11328 8.79883C0.408203 8.09375 0.779297 6.90625 1.74414 6.75781L7.19922 5.97852L9.61133 1.04297C10.0566 0.152344 11.3184 0.189453 11.7266 1.04297L14.1758 5.97852L19.5938 6.75781ZM14.3984 11.9902L18.1465 8.35352L12.9883 7.61133L10.6875 2.93555L8.34961 7.61133L3.19141 8.35352L6.93945 11.9902L6.04883 17.1113L10.6875 14.6992L15.2891 17.1113L14.3984 11.9902Z" fill="#65646A"/>
</svg>
